<svg width="68" height="68" viewBox="0 0 68 68" fill="none" xmlns="http://www.w3.org/2000/svg">
<g clip-path="url(#clip0_20_112)">
<path d="M0 32.64C0 17.253 -4.52441e-06 9.55163 4.77897 4.77898C9.55795 0.00632542 17.253 0 32.64 0H35.36C50.747 0 58.4484 0 63.221 4.77898C67.9937 9.55795 68 17.253 68 32.64V35.36C68 50.747 68 58.4484 63.221 63.221C58.4421 67.9937 50.747 68 35.36 68H32.64C17.253 68 9.55162 68 4.77897 63.221C0.0063209 58.442 0 50.747 0 35.36V32.64Z" fill="white"/>
<path fill-rule="evenodd" clip-rule="evenodd" d="M33.5 11C20.5162 11 10 21.5528 10 34.5818C10 45.0167 16.7269 53.8304 26.0681 56.955C27.2431 57.1613 27.6837 56.4538 27.6837 55.8348C27.6837 55.2748 27.6544 53.4177 27.6544 51.4427C21.75 52.5334 20.2225 49.9983 19.7525 48.6719C19.4881 47.9939 18.3425 45.901 17.3438 45.3409C16.5212 44.8988 15.3462 43.8081 17.3144 43.7786C19.165 43.7492 20.4869 45.4883 20.9275 46.1958C23.0425 49.7625 26.4206 48.7603 27.7719 48.1413C27.9775 46.6085 28.5944 45.5768 29.27 44.9872C24.0412 44.3977 18.5775 42.3637 18.5775 33.3437C18.5775 30.7792 19.4881 28.6568 20.9863 27.0061C20.7513 26.4166 19.9287 23.9994 21.2212 20.757C21.2212 20.757 23.1894 20.1379 27.6837 23.1741C29.5637 22.6435 31.5613 22.3782 33.5588 22.3782C35.5563 22.3782 37.5538 22.6435 39.4338 23.1741C43.9281 20.1085 45.8963 20.757 45.8963 20.757C47.1888 23.9994 46.3663 26.4166 46.1313 27.0061C47.6294 28.6568 48.54 30.7497 48.54 33.3437C48.54 42.3932 43.0469 44.3977 37.8181 44.9872C38.67 45.7241 39.4044 47.139 39.4044 49.3498C39.4044 52.5039 39.375 55.0389 39.375 55.8348C39.375 56.4538 39.8156 57.1908 40.9906 56.955C50.2731 53.8304 57 44.9872 57 34.5818C57 21.5528 46.4838 11 33.5 11Z" fill="#353535"/>
</g>
<defs>
<clipPath id="clip0_20_112">
<rect width="68" height="68" fill="white"/>
</clipPath>
</defs>
</svg>
