<svg width="421" height="465" viewBox="0 0 421 465" fill="none" xmlns="http://www.w3.org/2000/svg">
<g clip-path="url(#clip0_8_581)">
<path d="M343.5 426.25H33.5C28.3614 426.25 23.4333 424.209 19.7998 420.575C16.1663 416.942 14.125 412.014 14.125 406.875V58.125C14.125 52.9864 16.1663 48.0583 19.7998 44.4248C23.4333 40.7913 28.3614 38.75 33.5 38.75H343.5C348.639 38.75 353.567 40.7913 357.2 44.4248C360.834 48.0583 362.875 52.9864 362.875 58.125V406.875C362.875 412.014 360.834 416.942 357.2 420.575C353.567 424.209 348.639 426.25 343.5 426.25ZM324.125 387.5V77.5H52.875V387.5H324.125ZM91.625 116.25H169.125V193.75H91.625V116.25ZM91.625 232.5H285.375V271.25H91.625V232.5ZM91.625 310H285.375V348.75H91.625V310ZM207.875 135.625H285.375V174.375H207.875V135.625Z" fill="#FFB800"/>
</g>
<defs>
<clipPath id="clip0_8_581">
<rect width="465" height="465" fill="white" transform="translate(-44)"/>
</clipPath>
</defs>
</svg>
